<svg width="473" height="443" viewBox="0 0 473 443" fill="none" xmlns="http://www.w3.org/2000/svg">
<path d="M14 94C8.22707 94 0 98.0197 0 103.793V423C0 434.046 8.9543 443 20 443H331.648C337.212 443 341 435.564 341 430V341C341 329.954 349.954 321 361 321H463C467.652 321 473 317.856 473 313.204V20C473 8.9543 464.046 0 453 0H209.793C204.02 0 200 8.22707 200 14V74C200 85.0457 191.046 94 180 94H14Z" fill="#A7A7A7"/>
<path d="M439 384.5C439 399.688 426.688 412 411.5 412C396.312 412 384 399.688 384 384.5C384 369.312 396.312 357 411.5 357C426.688 357 439 369.312 439 384.5Z" fill="#A7A7A7"/>
</svg>
